<mxfile host="app.diagrams.net" modified="2023-08-07T18:54:39.534Z" agent="Mozilla/5.0 (Windows NT 10.0; Win64; x64) AppleWebKit/537.36 (KHTML, like Gecko) Chrome/115.0.0.0 Safari/537.36" etag="rQnGZTQgeLKY8AYhVqGC" version="21.5.0" type="device">
  <diagram name="Page-1" id="o2uaHp4hZgBTziHo9NyK">
    <mxGraphModel dx="2049" dy="1137" grid="1" gridSize="10" guides="1" tooltips="1" connect="1" arrows="1" fold="1" page="1" pageScale="1" pageWidth="850" pageHeight="1100" math="0" shadow="0">
      <root>
        <mxCell id="0" />
        <mxCell id="1" parent="0" />
        <mxCell id="IWPki4IG5KAyUd7TnJj5-21" value="" style="group" vertex="1" connectable="0" parent="1">
          <mxGeometry x="20" y="20" width="610" height="440" as="geometry" />
        </mxCell>
        <mxCell id="IWPki4IG5KAyUd7TnJj5-1" value="Xn" style="ellipse;whiteSpace=wrap;html=1;aspect=fixed;fontColor=#000000;fillColor=#7D7D7D;" vertex="1" parent="IWPki4IG5KAyUd7TnJj5-21">
          <mxGeometry y="360" width="80" height="80" as="geometry" />
        </mxCell>
        <mxCell id="IWPki4IG5KAyUd7TnJj5-2" value="X&lt;sub&gt;2&lt;/sub&gt;" style="ellipse;whiteSpace=wrap;html=1;aspect=fixed;fontColor=#000000;fillColor=#7D7D7D;" vertex="1" parent="IWPki4IG5KAyUd7TnJj5-21">
          <mxGeometry y="180" width="80" height="80" as="geometry" />
        </mxCell>
        <mxCell id="IWPki4IG5KAyUd7TnJj5-3" value="X&lt;sub&gt;1&lt;/sub&gt;" style="ellipse;whiteSpace=wrap;html=1;aspect=fixed;fontColor=#000000;fillColor=#7D7D7D;" vertex="1" parent="IWPki4IG5KAyUd7TnJj5-21">
          <mxGeometry width="80" height="80" as="geometry" />
        </mxCell>
        <mxCell id="IWPki4IG5KAyUd7TnJj5-4" value="h&lt;sub&gt;nh&lt;/sub&gt;(x)" style="ellipse;whiteSpace=wrap;html=1;aspect=fixed;fontColor=#000000;fillColor=#7D7D7D;" vertex="1" parent="IWPki4IG5KAyUd7TnJj5-21">
          <mxGeometry x="310" y="360" width="80" height="80" as="geometry" />
        </mxCell>
        <mxCell id="IWPki4IG5KAyUd7TnJj5-17" style="edgeStyle=orthogonalEdgeStyle;rounded=0;orthogonalLoop=1;jettySize=auto;html=1;exitX=1;exitY=0.5;exitDx=0;exitDy=0;entryX=0;entryY=0.5;entryDx=0;entryDy=0;" edge="1" parent="IWPki4IG5KAyUd7TnJj5-21" source="IWPki4IG5KAyUd7TnJj5-1" target="IWPki4IG5KAyUd7TnJj5-4">
          <mxGeometry relative="1" as="geometry" />
        </mxCell>
        <mxCell id="IWPki4IG5KAyUd7TnJj5-14" style="rounded=0;orthogonalLoop=1;jettySize=auto;html=1;exitX=1;exitY=0.5;exitDx=0;exitDy=0;entryX=0;entryY=0.5;entryDx=0;entryDy=0;labelBorderColor=default;" edge="1" parent="IWPki4IG5KAyUd7TnJj5-21" source="IWPki4IG5KAyUd7TnJj5-2" target="IWPki4IG5KAyUd7TnJj5-4">
          <mxGeometry relative="1" as="geometry" />
        </mxCell>
        <mxCell id="IWPki4IG5KAyUd7TnJj5-11" style="rounded=0;orthogonalLoop=1;jettySize=auto;html=1;exitX=1;exitY=0.5;exitDx=0;exitDy=0;entryX=0;entryY=0.5;entryDx=0;entryDy=0;labelBorderColor=default;" edge="1" parent="IWPki4IG5KAyUd7TnJj5-21" source="IWPki4IG5KAyUd7TnJj5-3" target="IWPki4IG5KAyUd7TnJj5-4">
          <mxGeometry relative="1" as="geometry" />
        </mxCell>
        <mxCell id="IWPki4IG5KAyUd7TnJj5-19" value="w&lt;sub&gt;2&lt;/sub&gt;" style="edgeStyle=orthogonalEdgeStyle;rounded=0;orthogonalLoop=1;jettySize=auto;html=1;exitX=1;exitY=0.5;exitDx=0;exitDy=0;labelBorderColor=default;" edge="1" parent="IWPki4IG5KAyUd7TnJj5-21">
          <mxGeometry relative="1" as="geometry">
            <mxPoint x="606" y="220.33333333333348" as="targetPoint" />
            <mxPoint x="386" y="220" as="sourcePoint" />
          </mxGeometry>
        </mxCell>
        <mxCell id="IWPki4IG5KAyUd7TnJj5-5" value="h&lt;span style=&quot;font-size: 10px;&quot;&gt;&lt;sub&gt;j&lt;/sub&gt;&lt;/span&gt;(x)" style="ellipse;whiteSpace=wrap;html=1;aspect=fixed;fontColor=#000000;fillColor=#7D7D7D;" vertex="1" parent="IWPki4IG5KAyUd7TnJj5-21">
          <mxGeometry x="310" y="180" width="80" height="80" as="geometry" />
        </mxCell>
        <mxCell id="IWPki4IG5KAyUd7TnJj5-16" style="rounded=0;orthogonalLoop=1;jettySize=auto;html=1;exitX=1;exitY=0.5;exitDx=0;exitDy=0;entryX=0;entryY=0.5;entryDx=0;entryDy=0;labelBorderColor=default;" edge="1" parent="IWPki4IG5KAyUd7TnJj5-21" source="IWPki4IG5KAyUd7TnJj5-1" target="IWPki4IG5KAyUd7TnJj5-5">
          <mxGeometry relative="1" as="geometry" />
        </mxCell>
        <mxCell id="IWPki4IG5KAyUd7TnJj5-13" style="edgeStyle=orthogonalEdgeStyle;rounded=0;orthogonalLoop=1;jettySize=auto;html=1;exitX=1;exitY=0.5;exitDx=0;exitDy=0;entryX=0;entryY=0.5;entryDx=0;entryDy=0;labelBorderColor=default;" edge="1" parent="IWPki4IG5KAyUd7TnJj5-21" source="IWPki4IG5KAyUd7TnJj5-2" target="IWPki4IG5KAyUd7TnJj5-5">
          <mxGeometry relative="1" as="geometry" />
        </mxCell>
        <mxCell id="IWPki4IG5KAyUd7TnJj5-10" style="rounded=0;orthogonalLoop=1;jettySize=auto;html=1;exitX=1;exitY=0.5;exitDx=0;exitDy=0;entryX=0;entryY=0.5;entryDx=0;entryDy=0;labelBorderColor=default;" edge="1" parent="IWPki4IG5KAyUd7TnJj5-21" source="IWPki4IG5KAyUd7TnJj5-3" target="IWPki4IG5KAyUd7TnJj5-5">
          <mxGeometry relative="1" as="geometry" />
        </mxCell>
        <mxCell id="IWPki4IG5KAyUd7TnJj5-6" value="h&lt;sub&gt;1&lt;/sub&gt;(x)" style="ellipse;whiteSpace=wrap;html=1;aspect=fixed;fontColor=#000000;fillColor=#7D7D7D;" vertex="1" parent="IWPki4IG5KAyUd7TnJj5-21">
          <mxGeometry x="310" width="80" height="80" as="geometry" />
        </mxCell>
        <mxCell id="IWPki4IG5KAyUd7TnJj5-15" style="rounded=0;orthogonalLoop=1;jettySize=auto;html=1;exitX=1;exitY=0.5;exitDx=0;exitDy=0;entryX=0;entryY=0.5;entryDx=0;entryDy=0;labelBorderColor=default;" edge="1" parent="IWPki4IG5KAyUd7TnJj5-21" source="IWPki4IG5KAyUd7TnJj5-1" target="IWPki4IG5KAyUd7TnJj5-6">
          <mxGeometry relative="1" as="geometry" />
        </mxCell>
        <mxCell id="IWPki4IG5KAyUd7TnJj5-12" style="rounded=0;orthogonalLoop=1;jettySize=auto;html=1;exitX=1;exitY=0.5;exitDx=0;exitDy=0;entryX=0;entryY=0.5;entryDx=0;entryDy=0;labelBorderColor=default;" edge="1" parent="IWPki4IG5KAyUd7TnJj5-21" source="IWPki4IG5KAyUd7TnJj5-2" target="IWPki4IG5KAyUd7TnJj5-6">
          <mxGeometry relative="1" as="geometry" />
        </mxCell>
        <mxCell id="IWPki4IG5KAyUd7TnJj5-8" style="edgeStyle=orthogonalEdgeStyle;rounded=0;orthogonalLoop=1;jettySize=auto;html=1;exitX=1;exitY=0.5;exitDx=0;exitDy=0;entryX=0;entryY=0.5;entryDx=0;entryDy=0;labelBorderColor=default;" edge="1" parent="IWPki4IG5KAyUd7TnJj5-21" source="IWPki4IG5KAyUd7TnJj5-3" target="IWPki4IG5KAyUd7TnJj5-6">
          <mxGeometry relative="1" as="geometry" />
        </mxCell>
        <mxCell id="IWPki4IG5KAyUd7TnJj5-7" value="y&lt;sub&gt;k&lt;/sub&gt;(X)" style="ellipse;whiteSpace=wrap;html=1;aspect=fixed;fontColor=#000000;fillColor=#7D7D7D;" vertex="1" parent="IWPki4IG5KAyUd7TnJj5-21">
          <mxGeometry x="530" y="180" width="80" height="80" as="geometry" />
        </mxCell>
        <mxCell id="IWPki4IG5KAyUd7TnJj5-20" value="w&lt;sub&gt;n&lt;/sub&gt;" style="rounded=0;orthogonalLoop=1;jettySize=auto;html=1;exitX=1;exitY=0.5;exitDx=0;exitDy=0;entryX=0;entryY=0.5;entryDx=0;entryDy=0;labelBorderColor=default;" edge="1" parent="IWPki4IG5KAyUd7TnJj5-21" source="IWPki4IG5KAyUd7TnJj5-4" target="IWPki4IG5KAyUd7TnJj5-7">
          <mxGeometry relative="1" as="geometry" />
        </mxCell>
        <mxCell id="IWPki4IG5KAyUd7TnJj5-18" value="w&lt;sub&gt;1&lt;/sub&gt;" style="rounded=0;orthogonalLoop=1;jettySize=auto;html=1;exitX=1;exitY=0.5;exitDx=0;exitDy=0;entryX=0;entryY=0.5;entryDx=0;entryDy=0;labelBorderColor=default;" edge="1" parent="IWPki4IG5KAyUd7TnJj5-21" source="IWPki4IG5KAyUd7TnJj5-6" target="IWPki4IG5KAyUd7TnJj5-7">
          <mxGeometry relative="1" as="geometry" />
        </mxCell>
      </root>
    </mxGraphModel>
  </diagram>
</mxfile>
